<svg width="48" height="48" viewBox="0 0 48 48" fill="none" xmlns="http://www.w3.org/2000/svg">
  <rect width="48" height="48" rx="12" fill="#0EA5E9"/>
  <path d="M15.5 14.5C15.5 13.6716 16.1716 13 17 13H31C31.8284 13 32.5 13.6716 32.5 14.5V22.5C32.5 28.299 27.799 33 22 33H17C16.1716 33 15.5 32.3284 15.5 31.5V14.5Z" fill="white"/>
  <path d="M24.866 14.5C28.7259 14.5 31.866 17.6401 31.866 21.5C31.866 25.3599 28.7259 28.5 24.866 28.5C20.4856 28.5 19.0196 24.5 19.2588 22.5L19.9052 20.5L21.8716 18.5L24.866 14.5Z" fill="#3B82F6"/>
  <path fill-rule="evenodd" clip-rule="evenodd" d="M32.5 25C33.0523 25 33.5 25.4477 33.5 26V33C33.5 33.5523 33.0523 34 32.5 34C31.9477 34 31.5 33.5523 31.5 33V26C31.5 25.4477 31.9477 25 32.5 25Z" fill="white"/>
  <circle cx="32.5" cy="19.5" r="1.5" fill="white"/>
</svg> 