<svg width="1024" height="1024" viewBox="0 0 1024 1024" fill="none" xmlns="http://www.w3.org/2000/svg">
  <path d="M530.104 10.6243C551.693 38.1777 584.834 85.6447 615.75 130.081C638.823 163.185 661.097 195.489 676.604 214.973C676.857 215.293 677.11 215.609 677.363 215.922C678.126 216.862 678.88 217.789 679.624 218.704C695.674 238.947 722.787 256.11 755.077 275.844C802.881 305.006 862.31 340.06 900.577 367.987C975.112 423.837 1052.04 538.24 971.61 612.841C932.267 649.162 869.34 649.162 835.284 649.162C831.337 649.162 827.629 649.162 824.163 649.162C817.977 649.162 812.427 649.162 807.423 649.162C780.45 649.162 764.637 649.162 756.61 648.649C754.37 648.519 752.557 648.357 751.09 648.165C738.587 646.073 722.667 632.02 702.88 614.254C687.59 600.53 670.487 585.2 652.283 570.977C635.01 557.48 614.57 541.38 598.283 529.53C598.043 530.304 597.75 531.354 597.407 532.63C596.183 536.874 594.773 542.537 593.59 548.824C591.224 561.387 590.023 574.5 590.023 582.25C590.023 612.23 594.197 635.894 598.317 659.267C600.543 672.244 602.757 685.134 604.157 698.77C607.077 727.787 606.584 768.4 597.803 798.004C590.003 824.387 575.157 848.544 553.264 860.517C511.744 884.074 453.384 886.694 382.777 865.084C330.557 849.024 280.437 820.024 219.63 750.147C185.024 711.104 166.47 676.797 150.65 647.597C140.837 629.644 132.557 614.377 124.597 604.23C118.957 597.043 113.717 592.334 108.544 591.787C104.504 591.364 100.29 593.084 96.9905 596.184C65.6172 625.814 23.3839 690.914 13.4239 773.387C-6.83608 936.597 140.944 1014.5 220.584 1000.36C308.584 984.57 388.544 973.01 466.477 969.317C521.65 966.784 576.35 968.37 630.904 970.234C676.724 971.797 722.454 973.354 768.104 972.79C789.397 972.53 811.757 970.957 833.797 969.407C857.204 967.764 880.264 966.144 901.09 966.144H929.757H930.917C965.45 966.144 1017.5 952.457 1017.5 894.57C1017.5 828.384 956.23 797.05 903.49 769.807C888.664 761.347 874.337 753.127 863.317 744.644C856.04 739.07 849.55 733.1 843.43 726.877C795.804 678.407 763.584 593.844 763.584 593.844C763.584 593.844 849.984 650.43 872.597 662.67C884.91 669.3 897.924 676.767 910.957 684.244C942.15 702.257 973.397 720.294 993.957 731.63C1027.96 750.164 1040.1 769.897 1039.14 791.064C1037.28 834.624 974.264 840.53 927.94 840.53C920.25 840.53 912.917 840.064 906.224 839.637C895.704 838.957 887.197 838.417 883.23 840.137C882.19 840.557 879.61 842.79 876.97 849.437C874.437 855.794 873.517 864.487 873.517 873.617V890.63C873.517 937.864 834.504 950.077 802.144 950.077C744.09 950.077 686.037 945.944 624.197 941.614C562.197 937.267 493.704 932.544 413.437 932.544C375.19 932.544 336.944 935.04 297.877 937.6C258.944 940.15 219.197 942.764 178.384 942.764C140.264 942.764 59.5705 937.237 25.8705 856.244C-1.82948 789.387 1.17719 713.104 35.4772 643.607C69.8505 574.017 129.237 521.747 157.917 503.254C163.277 499.774 170.13 498.967 177.87 499.864C197.15 502.194 211.19 516.234 223.177 534.384C235.997 553.877 246.197 579.697 261.677 599.63C281.29 625.074 317.177 652.584 376.157 680.944C445.944 714.764 464.437 704.77 468.584 680.944C475.864 639.054 480.35 606.524 475.864 540.644C471.484 476.244 450.97 452.42 430.117 428.22C409.217 403.97 387.97 379.337 382.384 317.697C373.19 215.864 417.784 146.067 455.464 99.1938C493.144 52.3205 530.824 10.6243 530.824 10.6243H530.104Z" fill="#83D5FF"/>
</svg> 